# MagicaVoxel @ Ephtracy

# material
mtllib Naoko_MagicBall.mtl
usemtl palette

# normals
vn -1 0 0
vn 1 0 0
vn 0 0 1
vn 0 0 -1
vn 0 -1 0
vn 0 1 0

# texcoords
vt 0.00195312 0.5
vt 0.751953 0.5
vt 0.755859 0.5
vt 0.771484 0.5
vt 0.775391 0.5
vt 0.845703 0.5
vt 0.892578 0.5
vt 0.904297 0.5

# verts
v -4 34 0.5
v -4 34 -0.5
v -4 34 -1.5
v -4 35 1.5
v -4 35 0.5
v -4 35 -1.5
v -4 35 -2.5
v -4 37 1.5
v -4 37 0.5
v -4 37 -1.5
v -4 37 -2.5
v -4 38 0.5
v -4 38 -0.5
v -4 38 -1.5
v -3 33 0.5
v -3 33 -0.5
v -3 33 -1.5
v -3 34 1.5
v -3 34 0.5
v -3 34 -0.5
v -3 34 -1.5
v -3 34 -2.5
v -3 34 -3.5
v -3 35 2.5
v -3 35 1.5
v -3 35 0.5
v -3 35 -1.5
v -3 35 -2.5
v -3 35 -3.5
v -3 35 -4.5
v -3 37 2.5
v -3 37 1.5
v -3 37 0.5
v -3 37 -1.5
v -3 37 -2.5
v -3 37 -3.5
v -3 37 -4.5
v -3 38 1.5
v -3 38 0.5
v -3 38 -0.5
v -3 38 -1.5
v -3 38 -2.5
v -3 38 -3.5
v -3 39 0.5
v -3 39 -0.5
v -3 39 -1.5
v -2 33 1.5
v -2 33 0.5
v -2 33 -1.5
v -2 33 -2.5
v -2 34 2.5
v -2 34 1.5
v -2 34 0.5
v -2 34 -1.5
v -2 34 -2.5
v -2 34 -3.5
v -2 34 -4.5
v -2 35 2.5
v -2 35 1.5
v -2 35 -2.5
v -2 35 -3.5
v -2 35 -4.5
v -2 35 -5.5
v -2 37 2.5
v -2 37 1.5
v -2 37 -2.5
v -2 37 -3.5
v -2 37 -4.5
v -2 37 -5.5
v -2 38 2.5
v -2 38 1.5
v -2 38 0.5
v -2 38 -1.5
v -2 38 -2.5
v -2 38 -3.5
v -2 38 -4.5
v -2 39 1.5
v -2 39 0.5
v -2 39 -1.5
v -2 39 -2.5
v 0 34 -2.5
v 0 34 -3.5
v 0 35 -2.5
v 0 35 -3.5
v 0 37 -2.5
v 0 37 -3.5
v 0 38 -2.5
v 0 38 -3.5
v -2 34 -2.5
v -2 34 -3.5
v -2 35 -2.5
v -2 35 -3.5
v -2 37 -2.5
v -2 37 -3.5
v -2 38 -2.5
v -2 38 -3.5
v 0 33 1.5
v 0 33 0.5
v 0 33 -1.5
v 0 33 -2.5
v 0 34 2.5
v 0 34 1.5
v 0 34 0.5
v 0 34 -1.5
v 0 34 -2.5
v 0 34 -3.5
v 0 34 -4.5
v 0 35 2.5
v 0 35 1.5
v 0 35 -2.5
v 0 35 -3.5
v 0 35 -4.5
v 0 35 -5.5
v 0 37 2.5
v 0 37 1.5
v 0 37 -2.5
v 0 37 -3.5
v 0 37 -4.5
v 0 37 -5.5
v 0 38 2.5
v 0 38 1.5
v 0 38 0.5
v 0 38 -1.5
v 0 38 -2.5
v 0 38 -3.5
v 0 38 -4.5
v 0 39 1.5
v 0 39 0.5
v 0 39 -1.5
v 0 39 -2.5
v 1 33 0.5
v 1 33 -0.5
v 1 33 -1.5
v 1 34 1.5
v 1 34 0.5
v 1 34 -0.5
v 1 34 -1.5
v 1 34 -2.5
v 1 34 -3.5
v 1 35 2.5
v 1 35 1.5
v 1 35 0.5
v 1 35 -1.5
v 1 35 -2.5
v 1 35 -3.5
v 1 35 -4.5
v 1 37 2.5
v 1 37 1.5
v 1 37 0.5
v 1 37 -1.5
v 1 37 -2.5
v 1 37 -3.5
v 1 37 -4.5
v 1 38 1.5
v 1 38 0.5
v 1 38 -0.5
v 1 38 -1.5
v 1 38 -2.5
v 1 38 -3.5
v 1 39 0.5
v 1 39 -0.5
v 1 39 -1.5
v 2 34 0.5
v 2 34 -0.5
v 2 34 -1.5
v 2 35 1.5
v 2 35 0.5
v 2 35 -1.5
v 2 35 -2.5
v 2 37 1.5
v 2 37 0.5
v 2 37 -1.5
v 2 37 -2.5
v 2 38 0.5
v 2 38 -0.5
v 2 38 -1.5
v -3 35 2.5
v -3 37 2.5
v -2 34 2.5
v -2 35 2.5
v -2 37 2.5
v -2 38 2.5
v 0 34 2.5
v 0 35 2.5
v 0 37 2.5
v 0 38 2.5
v 1 35 2.5
v 1 37 2.5
v -4 35 1.5
v -4 37 1.5
v -3 34 1.5
v -3 35 1.5
v -3 37 1.5
v -3 38 1.5
v -2 33 1.5
v -2 34 1.5
v -2 35 1.5
v -2 37 1.5
v -2 38 1.5
v -2 39 1.5
v 0 33 1.5
v 0 34 1.5
v 0 35 1.5
v 0 37 1.5
v 0 38 1.5
v 0 39 1.5
v 1 34 1.5
v 1 35 1.5
v 1 37 1.5
v 1 38 1.5
v 2 35 1.5
v 2 37 1.5
v -4 34 0.5
v -4 35 0.5
v -4 37 0.5
v -4 38 0.5
v -3 33 0.5
v -3 34 0.5
v -3 35 0.5
v -3 37 0.5
v -3 38 0.5
v -3 39 0.5
v -2 33 0.5
v -2 34 0.5
v -2 38 0.5
v -2 39 0.5
v 0 33 0.5
v 0 34 0.5
v 0 38 0.5
v 0 39 0.5
v 1 33 0.5
v 1 34 0.5
v 1 35 0.5
v 1 37 0.5
v 1 38 0.5
v 1 39 0.5
v 2 34 0.5
v 2 35 0.5
v 2 37 0.5
v 2 38 0.5
v -3 35 -3.5
v -3 37 -3.5
v -2 34 -3.5
v -2 35 -3.5
v -2 37 -3.5
v -2 38 -3.5
v 0 34 -3.5
v 0 35 -3.5
v 0 37 -3.5
v 0 38 -3.5
v 1 35 -3.5
v 1 37 -3.5
v -4 34 -1.5
v -4 35 -1.5
v -4 37 -1.5
v -4 38 -1.5
v -3 33 -1.5
v -3 34 -1.5
v -3 35 -1.5
v -3 37 -1.5
v -3 38 -1.5
v -3 39 -1.5
v -2 33 -1.5
v -2 34 -1.5
v -2 38 -1.5
v -2 39 -1.5
v 0 33 -1.5
v 0 34 -1.5
v 0 38 -1.5
v 0 39 -1.5
v 1 33 -1.5
v 1 34 -1.5
v 1 35 -1.5
v 1 37 -1.5
v 1 38 -1.5
v 1 39 -1.5
v 2 34 -1.5
v 2 35 -1.5
v 2 37 -1.5
v 2 38 -1.5
v -4 35 -2.5
v -4 37 -2.5
v -3 35 -2.5
v -3 37 -2.5
v -2 33 -2.5
v -2 34 -2.5
v -2 35 -2.5
v -2 37 -2.5
v -2 38 -2.5
v -2 39 -2.5
v 0 33 -2.5
v 0 34 -2.5
v 0 35 -2.5
v 0 37 -2.5
v 0 38 -2.5
v 0 39 -2.5
v 1 35 -2.5
v 1 37 -2.5
v 2 35 -2.5
v 2 37 -2.5
v -3 34 -3.5
v -3 35 -3.5
v -3 37 -3.5
v -3 38 -3.5
v -2 34 -3.5
v -2 35 -3.5
v -2 37 -3.5
v -2 38 -3.5
v 0 34 -3.5
v 0 35 -3.5
v 0 37 -3.5
v 0 38 -3.5
v 1 34 -3.5
v 1 35 -3.5
v 1 37 -3.5
v 1 38 -3.5
v -3 35 -4.5
v -3 37 -4.5
v -2 34 -4.5
v -2 35 -4.5
v -2 37 -4.5
v -2 38 -4.5
v 0 34 -4.5
v 0 35 -4.5
v 0 37 -4.5
v 0 38 -4.5
v 1 35 -4.5
v 1 37 -4.5
v -2 35 -5.5
v -2 37 -5.5
v 0 35 -5.5
v 0 37 -5.5
v -2 33 1.5
v 0 33 1.5
v -3 33 0.5
v -2 33 0.5
v 0 33 0.5
v 1 33 0.5
v -3 33 -0.5
v 1 33 -0.5
v -3 33 -1.5
v -2 33 -1.5
v 0 33 -1.5
v 1 33 -1.5
v -2 33 -2.5
v 0 33 -2.5
v -2 34 2.5
v 0 34 2.5
v -3 34 1.5
v -2 34 1.5
v 0 34 1.5
v 1 34 1.5
v -4 34 0.5
v -3 34 0.5
v -2 34 0.5
v 0 34 0.5
v 1 34 0.5
v 2 34 0.5
v -4 34 -0.5
v -3 34 -0.5
v 1 34 -0.5
v 2 34 -0.5
v -4 34 -1.5
v -3 34 -1.5
v -2 34 -1.5
v 0 34 -1.5
v 1 34 -1.5
v 2 34 -1.5
v -3 34 -2.5
v -2 34 -2.5
v 0 34 -2.5
v 1 34 -2.5
v -3 34 -3.5
v -2 34 -3.5
v 0 34 -3.5
v 1 34 -3.5
v -2 34 -4.5
v 0 34 -4.5
v -3 35 2.5
v -2 35 2.5
v 0 35 2.5
v 1 35 2.5
v -4 35 1.5
v -3 35 1.5
v -2 35 1.5
v 0 35 1.5
v 1 35 1.5
v 2 35 1.5
v -4 35 0.5
v -3 35 0.5
v 1 35 0.5
v 2 35 0.5
v -4 35 -1.5
v -3 35 -1.5
v 1 35 -1.5
v 2 35 -1.5
v -4 35 -2.5
v -3 35 -2.5
v -2 35 -2.5
v 0 35 -2.5
v 1 35 -2.5
v 2 35 -2.5
v -3 35 -3.5
v -2 35 -3.5
v 0 35 -3.5
v 1 35 -3.5
v -3 35 -4.5
v -2 35 -4.5
v 0 35 -4.5
v 1 35 -4.5
v -2 35 -5.5
v 0 35 -5.5
v -3 37 -2.5
v -2 37 -2.5
v 0 37 -2.5
v 1 37 -2.5
v -3 37 -3.5
v -2 37 -3.5
v 0 37 -3.5
v 1 37 -3.5
v -3 35 -2.5
v -2 35 -2.5
v 0 35 -2.5
v 1 35 -2.5
v -3 35 -3.5
v -2 35 -3.5
v 0 35 -3.5
v 1 35 -3.5
v -3 37 2.5
v -2 37 2.5
v 0 37 2.5
v 1 37 2.5
v -4 37 1.5
v -3 37 1.5
v -2 37 1.5
v 0 37 1.5
v 1 37 1.5
v 2 37 1.5
v -4 37 0.5
v -3 37 0.5
v 1 37 0.5
v 2 37 0.5
v -4 37 -1.5
v -3 37 -1.5
v 1 37 -1.5
v 2 37 -1.5
v -4 37 -2.5
v -3 37 -2.5
v -2 37 -2.5
v 0 37 -2.5
v 1 37 -2.5
v 2 37 -2.5
v -3 37 -3.5
v -2 37 -3.5
v 0 37 -3.5
v 1 37 -3.5
v -3 37 -4.5
v -2 37 -4.5
v 0 37 -4.5
v 1 37 -4.5
v -2 37 -5.5
v 0 37 -5.5
v -2 38 2.5
v 0 38 2.5
v -3 38 1.5
v -2 38 1.5
v 0 38 1.5
v 1 38 1.5
v -4 38 0.5
v -3 38 0.5
v -2 38 0.5
v 0 38 0.5
v 1 38 0.5
v 2 38 0.5
v -4 38 -0.5
v -3 38 -0.5
v 1 38 -0.5
v 2 38 -0.5
v -4 38 -1.5
v -3 38 -1.5
v -2 38 -1.5
v 0 38 -1.5
v 1 38 -1.5
v 2 38 -1.5
v -3 38 -2.5
v -2 38 -2.5
v 0 38 -2.5
v 1 38 -2.5
v -3 38 -3.5
v -2 38 -3.5
v 0 38 -3.5
v 1 38 -3.5
v -2 38 -4.5
v 0 38 -4.5
v -2 39 1.5
v 0 39 1.5
v -3 39 0.5
v -2 39 0.5
v 0 39 0.5
v 1 39 0.5
v -3 39 -0.5
v 1 39 -0.5
v -3 39 -1.5
v -2 39 -1.5
v 0 39 -1.5
v 1 39 -1.5
v -2 39 -2.5
v 0 39 -2.5

# faces
f 5/6/1 2/6/1 1/6/1
f 6/5/1 3/5/1 2/5/1
f 8/7/1 5/7/1 4/7/1
f 9/6/1 2/6/1 5/6/1
f 9/7/1 5/7/1 8/7/1
f 10/4/1 7/4/1 6/4/1
f 10/5/1 6/5/1 2/5/1
f 11/4/1 7/4/1 10/4/1
f 12/6/1 2/6/1 9/6/1
f 13/5/1 10/5/1 2/5/1
f 13/6/1 2/6/1 12/6/1
f 14/5/1 10/5/1 13/5/1
f 19/6/1 16/6/1 15/6/1
f 20/5/1 17/5/1 16/5/1
f 20/6/1 16/6/1 19/6/1
f 21/5/1 17/5/1 20/5/1
f 25/7/1 19/7/1 18/7/1
f 26/7/1 19/7/1 25/7/1
f 27/4/1 22/4/1 21/4/1
f 28/3/1 23/3/1 22/3/1
f 28/4/1 22/4/1 27/4/1
f 29/3/1 23/3/1 28/3/1
f 31/8/1 25/8/1 24/8/1
f 32/8/1 25/8/1 31/8/1
f 36/2/1 30/2/1 29/2/1
f 37/2/1 30/2/1 36/2/1
f 38/7/1 33/7/1 32/7/1
f 39/7/1 33/7/1 38/7/1
f 41/4/1 35/4/1 34/4/1
f 42/3/1 36/3/1 35/3/1
f 42/4/1 35/4/1 41/4/1
f 43/3/1 36/3/1 42/3/1
f 44/6/1 40/6/1 39/6/1
f 45/5/1 41/5/1 40/5/1
f 45/6/1 40/6/1 44/6/1
f 46/5/1 41/5/1 45/5/1
f 52/7/1 48/7/1 47/7/1
f 53/7/1 48/7/1 52/7/1
f 54/4/1 50/4/1 49/4/1
f 55/4/1 50/4/1 54/4/1
f 58/8/1 52/8/1 51/8/1
f 59/8/1 52/8/1 58/8/1
f 61/2/1 57/2/1 56/2/1
f 62/2/1 57/2/1 61/2/1
f 66/3/1 61/3/1 60/3/1
f 67/3/1 61/3/1 66/3/1
f 68/1/1 63/1/1 62/1/1
f 69/1/1 63/1/1 68/1/1
f 70/8/1 65/8/1 64/8/1
f 71/8/1 65/8/1 70/8/1
f 75/2/1 68/2/1 67/2/1
f 76/2/1 68/2/1 75/2/1
f 77/7/1 72/7/1 71/7/1
f 78/7/1 72/7/1 77/7/1
f 79/4/1 74/4/1 73/4/1
f 80/4/1 74/4/1 79/4/1
f 83/3/1 82/3/1 81/3/1
f 84/3/1 82/3/1 83/3/1
f 87/3/1 86/3/1 85/3/1
f 88/3/1 86/3/1 87/3/1
f 89/3/2 90/3/2 91/3/2
f 91/3/2 90/3/2 92/3/2
f 93/3/2 94/3/2 95/3/2
f 95/3/2 94/3/2 96/3/2
f 97/7/2 98/7/2 102/7/2
f 102/7/2 98/7/2 103/7/2
f 99/4/2 100/4/2 104/4/2
f 104/4/2 100/4/2 105/4/2
f 101/8/2 102/8/2 108/8/2
f 108/8/2 102/8/2 109/8/2
f 106/2/2 107/2/2 111/2/2
f 111/2/2 107/2/2 112/2/2
f 110/3/2 111/3/2 116/3/2
f 116/3/2 111/3/2 117/3/2
f 112/1/2 113/1/2 118/1/2
f 118/1/2 113/1/2 119/1/2
f 114/8/2 115/8/2 120/8/2
f 120/8/2 115/8/2 121/8/2
f 117/2/2 118/2/2 125/2/2
f 125/2/2 118/2/2 126/2/2
f 121/7/2 122/7/2 127/7/2
f 127/7/2 122/7/2 128/7/2
f 123/4/2 124/4/2 129/4/2
f 129/4/2 124/4/2 130/4/2
f 131/6/2 132/6/2 135/6/2
f 132/5/2 133/5/2 136/5/2
f 135/6/2 132/6/2 136/6/2
f 136/5/2 133/5/2 137/5/2
f 134/7/2 135/7/2 141/7/2
f 141/7/2 135/7/2 142/7/2
f 137/4/2 138/4/2 143/4/2
f 138/3/2 139/3/2 144/3/2
f 143/4/2 138/4/2 144/4/2
f 144/3/2 139/3/2 145/3/2
f 140/8/2 141/8/2 147/8/2
f 147/8/2 141/8/2 148/8/2
f 145/2/2 146/2/2 152/2/2
f 152/2/2 146/2/2 153/2/2
f 148/7/2 149/7/2 154/7/2
f 154/7/2 149/7/2 155/7/2
f 150/4/2 151/4/2 157/4/2
f 151/3/2 152/3/2 158/3/2
f 157/4/2 151/4/2 158/4/2
f 158/3/2 152/3/2 159/3/2
f 155/6/2 156/6/2 160/6/2
f 156/5/2 157/5/2 161/5/2
f 160/6/2 156/6/2 161/6/2
f 161/5/2 157/5/2 162/5/2
f 163/6/2 164/6/2 167/6/2
f 164/5/2 165/5/2 168/5/2
f 166/7/2 167/7/2 170/7/2
f 167/6/2 164/6/2 171/6/2
f 170/7/2 167/7/2 171/7/2
f 168/4/2 169/4/2 172/4/2
f 164/5/2 168/5/2 172/5/2
f 172/4/2 169/4/2 173/4/2
f 171/6/2 164/6/2 174/6/2
f 164/5/2 172/5/2 175/5/2
f 174/6/2 164/6/2 175/6/2
f 175/5/2 172/5/2 176/5/2
f 180/8/3 178/8/3 177/8/3
f 181/8/3 178/8/3 180/8/3
f 183/8/3 180/8/3 179/8/3
f 183/8/3 182/8/3 181/8/3
f 183/8/3 181/8/3 180/8/3
f 184/8/3 182/8/3 183/8/3
f 185/8/3 182/8/3 184/8/3
f 186/8/3 182/8/3 185/8/3
f 187/8/3 185/8/3 184/8/3
f 188/8/3 185/8/3 187/8/3
f 192/7/3 190/7/3 189/7/3
f 193/7/3 190/7/3 192/7/3
f 196/7/3 192/7/3 191/7/3
f 197/7/3 192/7/3 196/7/3
f 198/7/3 194/7/3 193/7/3
f 199/7/3 194/7/3 198/7/3
f 201/7/3 196/7/3 195/7/3
f 202/7/3 196/7/3 201/7/3
f 205/7/3 200/7/3 199/7/3
f 206/7/3 200/7/3 205/7/3
f 207/7/3 203/7/3 202/7/3
f 208/7/3 203/7/3 207/7/3
f 209/7/3 205/7/3 204/7/3
f 210/7/3 205/7/3 209/7/3
f 211/7/3 209/7/3 208/7/3
f 212/7/3 209/7/3 211/7/3
f 218/6/3 214/6/3 213/6/3
f 219/6/3 214/6/3 218/6/3
f 220/6/3 216/6/3 215/6/3
f 221/6/3 216/6/3 220/6/3
f 223/6/3 218/6/3 217/6/3
f 224/6/3 218/6/3 223/6/3
f 225/6/3 222/6/3 221/6/3
f 226/6/3 222/6/3 225/6/3
f 231/6/3 228/6/3 227/6/3
f 232/6/3 228/6/3 231/6/3
f 235/6/3 230/6/3 229/6/3
f 236/6/3 230/6/3 235/6/3
f 237/6/3 233/6/3 232/6/3
f 238/6/3 233/6/3 237/6/3
f 239/6/3 235/6/3 234/6/3
f 240/6/3 235/6/3 239/6/3
f 244/2/3 242/2/3 241/2/3
f 245/2/3 242/2/3 244/2/3
f 247/2/3 244/2/3 243/2/3
f 248/2/3 244/2/3 247/2/3
f 249/2/3 246/2/3 245/2/3
f 250/2/3 246/2/3 249/2/3
f 251/2/3 249/2/3 248/2/3
f 252/2/3 249/2/3 251/2/3
f 253/5/4 254/5/4 258/5/4
f 258/5/4 254/5/4 259/5/4
f 255/5/4 256/5/4 260/5/4
f 260/5/4 256/5/4 261/5/4
f 257/5/4 258/5/4 263/5/4
f 263/5/4 258/5/4 264/5/4
f 261/5/4 262/5/4 265/5/4
f 265/5/4 262/5/4 266/5/4
f 267/5/4 268/5/4 271/5/4
f 271/5/4 268/5/4 272/5/4
f 269/5/4 270/5/4 275/5/4
f 275/5/4 270/5/4 276/5/4
f 272/5/4 273/5/4 277/5/4
f 277/5/4 273/5/4 278/5/4
f 274/5/4 275/5/4 279/5/4
f 279/5/4 275/5/4 280/5/4
f 281/4/4 282/4/4 283/4/4
f 283/4/4 282/4/4 284/4/4
f 283/4/4 284/4/4 287/4/4
f 287/4/4 284/4/4 288/4/4
f 285/4/4 286/4/4 291/4/4
f 286/4/4 287/4/4 291/4/4
f 291/4/4 287/4/4 292/4/4
f 292/4/4 287/4/4 293/4/4
f 289/4/4 290/4/4 294/4/4
f 288/4/4 289/4/4 294/4/4
f 294/4/4 290/4/4 295/4/4
f 295/4/4 290/4/4 296/4/4
f 293/4/4 294/4/4 297/4/4
f 297/4/4 294/4/4 298/4/4
f 297/4/4 298/4/4 299/4/4
f 299/4/4 298/4/4 300/4/4
f 301/3/4 302/3/4 305/3/4
f 305/3/4 302/3/4 306/3/4
f 303/3/4 304/3/4 307/3/4
f 307/3/4 304/3/4 308/3/4
f 309/3/4 310/3/4 313/3/4
f 313/3/4 310/3/4 314/3/4
f 311/3/4 312/3/4 315/3/4
f 315/3/4 312/3/4 316/3/4
f 317/2/4 318/2/4 320/2/4
f 320/2/4 318/2/4 321/2/4
f 319/2/4 320/2/4 323/2/4
f 323/2/4 320/2/4 324/2/4
f 321/2/4 322/2/4 325/2/4
f 325/2/4 322/2/4 326/2/4
f 324/2/4 325/2/4 327/2/4
f 327/2/4 325/2/4 328/2/4
f 329/1/4 330/1/4 331/1/4
f 331/1/4 330/1/4 332/1/4
f 336/7/5 334/7/5 333/7/5
f 337/7/5 334/7/5 336/7/5
f 339/6/5 336/6/5 335/6/5
f 339/6/5 338/6/5 337/6/5
f 339/6/5 337/6/5 336/6/5
f 340/6/5 338/6/5 339/6/5
f 341/5/5 340/5/5 339/5/5
f 342/5/5 340/5/5 341/5/5
f 343/5/5 340/5/5 342/5/5
f 344/5/5 340/5/5 343/5/5
f 345/4/5 343/4/5 342/4/5
f 346/4/5 343/4/5 345/4/5
f 350/8/5 348/8/5 347/8/5
f 351/8/5 348/8/5 350/8/5
f 354/7/5 350/7/5 349/7/5
f 355/7/5 350/7/5 354/7/5
f 356/7/5 352/7/5 351/7/5
f 357/7/5 352/7/5 356/7/5
f 359/6/5 354/6/5 353/6/5
f 360/6/5 354/6/5 359/6/5
f 361/6/5 358/6/5 357/6/5
f 362/6/5 358/6/5 361/6/5
f 363/5/5 360/5/5 359/5/5
f 364/5/5 360/5/5 363/5/5
f 367/5/5 362/5/5 361/5/5
f 368/5/5 362/5/5 367/5/5
f 369/4/5 365/4/5 364/4/5
f 370/4/5 365/4/5 369/4/5
f 371/4/5 367/4/5 366/4/5
f 372/4/5 367/4/5 371/4/5
f 373/3/5 370/3/5 369/3/5
f 374/3/5 370/3/5 373/3/5
f 375/3/5 372/3/5 371/3/5
f 376/3/5 372/3/5 375/3/5
f 377/2/5 375/2/5 374/2/5
f 378/2/5 375/2/5 377/2/5
f 384/8/5 380/8/5 379/8/5
f 385/8/5 380/8/5 384/8/5
f 386/8/5 382/8/5 381/8/5
f 387/8/5 382/8/5 386/8/5
f 389/7/5 384/7/5 383/7/5
f 390/7/5 384/7/5 389/7/5
f 391/7/5 388/7/5 387/7/5
f 392/7/5 388/7/5 391/7/5
f 397/4/5 394/4/5 393/4/5
f 398/4/5 394/4/5 397/4/5
f 401/4/5 396/4/5 395/4/5
f 402/4/5 396/4/5 401/4/5
f 404/3/5 400/3/5 399/3/5
f 405/3/5 400/3/5 404/3/5
f 407/2/5 404/2/5 403/2/5
f 408/2/5 404/2/5 407/2/5
f 409/2/5 406/2/5 405/2/5
f 410/2/5 406/2/5 409/2/5
f 411/1/5 409/1/5 408/1/5
f 412/1/5 409/1/5 411/1/5
f 417/3/5 414/3/5 413/3/5
f 418/3/5 414/3/5 417/3/5
f 419/3/5 416/3/5 415/3/5
f 420/3/5 416/3/5 419/3/5
f 421/3/6 422/3/6 425/3/6
f 425/3/6 422/3/6 426/3/6
f 423/3/6 424/3/6 427/3/6
f 427/3/6 424/3/6 428/3/6
f 429/8/6 430/8/6 434/8/6
f 434/8/6 430/8/6 435/8/6
f 431/8/6 432/8/6 436/8/6
f 436/8/6 432/8/6 437/8/6
f 433/7/6 434/7/6 439/7/6
f 439/7/6 434/7/6 440/7/6
f 437/7/6 438/7/6 441/7/6
f 441/7/6 438/7/6 442/7/6
f 443/4/6 444/4/6 447/4/6
f 447/4/6 444/4/6 448/4/6
f 445/4/6 446/4/6 451/4/6
f 451/4/6 446/4/6 452/4/6
f 449/3/6 450/3/6 454/3/6
f 454/3/6 450/3/6 455/3/6
f 453/2/6 454/2/6 457/2/6
f 457/2/6 454/2/6 458/2/6
f 455/2/6 456/2/6 459/2/6
f 459/2/6 456/2/6 460/2/6
f 458/1/6 459/1/6 461/1/6
f 461/1/6 459/1/6 462/1/6
f 463/8/6 464/8/6 466/8/6
f 466/8/6 464/8/6 467/8/6
f 465/7/6 466/7/6 470/7/6
f 470/7/6 466/7/6 471/7/6
f 467/7/6 468/7/6 472/7/6
f 472/7/6 468/7/6 473/7/6
f 469/6/6 470/6/6 475/6/6
f 475/6/6 470/6/6 476/6/6
f 473/6/6 474/6/6 477/6/6
f 477/6/6 474/6/6 478/6/6
f 475/5/6 476/5/6 479/5/6
f 479/5/6 476/5/6 480/5/6
f 477/5/6 478/5/6 483/5/6
f 483/5/6 478/5/6 484/5/6
f 480/4/6 481/4/6 485/4/6
f 485/4/6 481/4/6 486/4/6
f 482/4/6 483/4/6 487/4/6
f 487/4/6 483/4/6 488/4/6
f 485/3/6 486/3/6 489/3/6
f 489/3/6 486/3/6 490/3/6
f 487/3/6 488/3/6 491/3/6
f 491/3/6 488/3/6 492/3/6
f 490/2/6 491/2/6 493/2/6
f 493/2/6 491/2/6 494/2/6
f 495/7/6 496/7/6 498/7/6
f 498/7/6 496/7/6 499/7/6
f 497/6/6 498/6/6 501/6/6
f 499/6/6 500/6/6 501/6/6
f 498/6/6 499/6/6 501/6/6
f 501/6/6 500/6/6 502/6/6
f 501/5/6 502/5/6 503/5/6
f 503/5/6 502/5/6 504/5/6
f 504/5/6 502/5/6 505/5/6
f 505/5/6 502/5/6 506/5/6
f 504/4/6 505/4/6 507/4/6
f 507/4/6 505/4/6 508/4/6
